<?xml version="1.0" encoding="UTF-8"?>
<svg version="1.1" xmlns="http://www.w3.org/2000/svg" width="184" height="184">
<path d="M0 0 C1.98535156 1.17407227 1.98535156 1.17407227 3.890625 2.81640625 C4.59566162 3.41243652 5.30069824 4.0084668 6.02709961 4.62255859 C6.76065674 5.26273926 7.49421387 5.90291992 8.25 6.5625 C9.77667006 7.85886671 11.30400655 9.15444903 12.83203125 10.44921875 C13.55729004 11.06974121 14.28254883 11.69026367 15.02978516 12.32958984 C17.28540661 14.24197671 19.59067809 16.07591031 21.9375 17.875 C24.90604008 20.15106993 27.83667362 22.46604095 30.75 24.8125 C35.62014272 28.72222637 40.56617353 32.5247097 45.53125 36.3125 C46.06054611 36.73867111 46.58984222 37.16484222 47.13517761 37.60392761 C49.04608128 39.09018278 49.04608128 39.09018278 51.47090149 40.43965149 C55.80680272 43.24018083 58.53175475 45.38019621 59.99703979 50.44906616 C60.44161433 54.75763818 60.57922686 58.9661134 60.57421875 63.29296875 C60.59878443 64.88709958 60.62525193 66.48120211 60.65351868 68.07527161 C60.69971292 71.41043092 60.70646402 74.74296767 60.68823242 78.07836914 C60.67400359 81.47962971 60.72240241 84.87025926 60.83178711 88.26977539 C61.77458584 117.87220596 61.77458584 117.87220596 55.39501953 124.95166016 C51.9085077 127.93118487 48.14857542 130.07603033 44.00650024 132.01651001 C41.40823019 133.29005712 39.37092659 134.95434968 37.21875 136.875 C36.59339355 137.39835938 35.96803711 137.92171875 35.32373047 138.4609375 C34.72189941 138.96882812 34.12006836 139.47671875 33.5 140 C27.06377756 145.36883288 20.49627424 150.52862029 13.79492188 155.5625 C13.13814453 156.0575 12.48136719 156.5525 11.8046875 157.0625 C10.84900879 157.77986328 10.84900879 157.77986328 9.87402344 158.51171875 C7.94499231 160.04368511 6.18068976 161.69238391 4.3828125 163.375 C1.99987092 165.42489665 1.09160314 165.98091601 -2.09375 166.64453125 C-5.8702597 165.80699886 -7.63347585 164.27622897 -10.5 161.6875 C-11.55549853 160.75837567 -12.61286386 159.83136868 -13.671875 158.90625 C-14.49075195 158.18308594 -14.49075195 158.18308594 -15.32617188 157.4453125 C-18.05403133 155.08986793 -20.90081896 152.89326553 -23.75 150.6875 C-28.90839371 146.66879316 -33.99969403 142.57588319 -39.0625 138.4375 C-50.13983254 128.9611162 -50.13983254 128.9611162 -62.12174988 120.79402161 C-64.89660069 118.1436066 -64.59354857 116.05415489 -64.72387695 112.2722168 C-64.75176804 111.59200974 -64.77965912 110.91180267 -64.80839539 110.21098328 C-64.89238879 107.9570809 -64.94395256 105.70423437 -64.98828125 103.44921875 C-65.00583151 102.67509958 -65.02338177 101.90098042 -65.04146385 101.10340309 C-65.13080484 96.99600882 -65.19303556 92.88913743 -65.2355957 88.78100586 C-65.27535021 85.40171074 -65.3653082 82.02980997 -65.50219727 78.65307617 C-66.67145469 49.19020846 -66.67145469 49.19020846 -60.43017578 41.81958008 C-56.96246747 38.62802153 -53.19852235 36.2391388 -49.02548218 34.0718689 C-46.46329199 32.71597843 -44.30709042 31.0202406 -42.078125 29.17578125 C-40.80411492 28.21864401 -39.52816567 27.26408075 -38.25 26.3125 C-33.10070933 22.42925271 -28.07720899 18.45556437 -23.1875 14.25 C-19.02385658 10.68486413 -14.8296331 7.17529577 -10.5 3.8125 C-9.5615625 3.07644531 -8.623125 2.34039062 -7.65625 1.58203125 C-4.65269608 -0.20685013 -3.42415154 -0.36525148 0 0 Z " fill="#FAFAFA" transform="translate(95,10)"/>
<path d="M0 0 C2.71326163 1.22767352 4.66353834 2.86916193 6.9296875 4.8046875 C7.89390625 5.61421875 8.858125 6.42375 9.8515625 7.2578125 C10.36783203 7.69158203 10.88410156 8.12535156 11.41601562 8.57226562 C14.29312046 10.95556462 17.23691708 13.25334101 20.1796875 15.5546875 C20.78087402 16.02567871 21.38206055 16.49666992 22.00146484 16.98193359 C25.18108864 19.47067617 28.3661628 21.9523579 31.5546875 24.4296875 C32.24046875 24.96335937 32.92625 25.49703125 33.6328125 26.046875 C34.991726 27.10332065 36.35123911 28.15899979 37.71289062 29.21191406 C39.57940071 30.65621358 41.44218902 32.10521977 43.3046875 33.5546875 C43.89572266 34.01037109 44.48675781 34.46605469 45.09570312 34.93554688 C48.67540081 37.72876512 51.90903109 40.65394756 55.0546875 43.9296875 C47.43170976 50.54510644 39.63763924 56.8473788 31.58642578 62.93457031 C25.81392887 67.3122742 20.17315338 71.83336752 14.58276367 76.44091797 C13.36768091 77.43968223 12.14731537 78.43205918 10.92138672 79.41748047 C9.59270437 80.49384176 8.28366733 81.59464912 6.98876953 82.71142578 C5.06330928 84.30073033 3.23950454 85.72145067 1.0546875 86.9296875 C-3.53570033 86.38189197 -7.03984637 82.73059804 -10.5703125 79.8671875 C-11.18350342 79.37766602 -11.79669434 78.88814453 -12.4284668 78.38378906 C-17.13284623 74.6183307 -21.79194233 70.7969586 -26.4453125 66.96875 C-30.22505892 63.88589433 -34.08681359 60.91287879 -37.9453125 57.9296875 C-40.38659945 56.03867906 -42.82318316 54.14175764 -45.2578125 52.2421875 C-45.85698486 51.77828613 -46.45615723 51.31438477 -47.07348633 50.83642578 C-50.23582027 48.36511542 -53.17564282 45.84980837 -55.9453125 42.9296875 C-49.08800544 37.02634296 -42.17919044 31.25349458 -34.97290039 25.77856445 C-30.66070843 22.49773145 -26.41917731 19.13584622 -22.1953125 15.7421875 C-16.81624664 11.4222513 -11.42393221 7.1233431 -5.9453125 2.9296875 C-5.28917969 2.35347656 -4.63304687 1.77726562 -3.95703125 1.18359375 C-1.9453125 -0.0703125 -1.9453125 -0.0703125 0 0 Z " fill="#FCFCFC" transform="translate(92.9453125,15.0703125)"/>
<path d="M0 0 C0.66 0 1.32 0 2 0 C2 0.66 2 1.32 2 2 C2.58845703 2.27384521 3.17691406 2.54769043 3.78320312 2.82983398 C5.92810674 3.96205018 7.60908578 5.17494077 9.46875 6.72265625 C10.11585937 7.25632812 10.76296875 7.79 11.4296875 8.33984375 C12.11289062 8.90832031 12.79609375 9.47679688 13.5 10.0625 C18.26120105 13.98146693 23.0357978 17.83821898 28 21.5 C35.53764356 27.07579112 42.77212579 33.03110513 50 39 C51.05348633 39.61093506 52.10697266 40.22187012 53.19238281 40.85131836 C55.45117854 42.7559889 55.95832589 43.78241507 56.52200317 46.72543335 C56.69643824 50.29658579 56.6734581 53.82011894 56.5859375 57.39453125 C56.57320297 59.34826912 56.57320297 59.34826912 56.56021118 61.34147644 C56.53737672 64.79285614 56.47850591 68.24270414 56.4119873 71.69348145 C56.35044491 75.21927165 56.32317104 78.74531108 56.29296875 82.27148438 C56.22875299 89.18161609 56.12644233 96.09073438 56 103 C52.328535 101.24499949 49.25046419 99.00623104 46.0625 96.5 C44.89335863 95.58967745 43.72408422 94.67952576 42.5546875 93.76953125 C41.66475098 93.074646 41.66475098 93.074646 40.75683594 92.36572266 C38.08218591 90.28651306 35.38228661 88.24051074 32.6875 86.1875 C26.98877617 81.82960098 21.42474893 77.31383688 15.90698242 72.72924805 C15.28412354 72.216604 14.66126465 71.70395996 14.01953125 71.17578125 C13.42442749 70.67793625 12.82932373 70.18009125 12.21618652 69.66716003 C10.02478648 67.92770155 10.02478648 67.92770155 7.45429993 66.65176392 C3.34271597 64.36073654 0.49261005 62.67233714 -0.87815857 58.01878357 C-1.15838029 54.2986985 -1.12477177 50.7004303 -0.9765625 46.97265625 C-0.95788476 45.61507909 -0.94366261 44.257434 -0.9336853 42.89976501 C-0.89570173 39.34526781 -0.7976788 35.79493078 -0.68664551 32.24206543 C-0.58389617 28.60921518 -0.53858238 24.97568477 -0.48828125 21.34179688 C-0.38139258 14.22617382 -0.21098807 7.11336001 0 0 Z " fill="#FBFBFB" transform="translate(35,65)"/>
<path d="M0 0 C1.98535156 1.17407227 1.98535156 1.17407227 3.890625 2.81640625 C4.59566162 3.41243652 5.30069824 4.0084668 6.02709961 4.62255859 C6.76065674 5.26273926 7.49421387 5.90291992 8.25 6.5625 C9.77667006 7.85886671 11.30400655 9.15444903 12.83203125 10.44921875 C13.55729004 11.06974121 14.28254883 11.69026367 15.02978516 12.32958984 C17.28540661 14.24197671 19.59067809 16.07591031 21.9375 17.875 C24.90604008 20.15106993 27.83667362 22.46604095 30.75 24.8125 C35.62014272 28.72222637 40.56617353 32.5247097 45.53125 36.3125 C46.06054611 36.73867111 46.58984222 37.16484222 47.13517761 37.60392761 C49.04608128 39.09018278 49.04608128 39.09018278 51.47090149 40.43965149 C55.80680272 43.24018083 58.53175475 45.38019621 59.99703979 50.44906616 C60.44161433 54.75763818 60.57922686 58.9661134 60.57421875 63.29296875 C60.59878443 64.88709958 60.62525193 66.48120211 60.65351868 68.07527161 C60.69971292 71.41043092 60.70646402 74.74296767 60.68823242 78.07836914 C60.67400359 81.47962971 60.72240241 84.87025926 60.83178711 88.26977539 C61.77458584 117.87220596 61.77458584 117.87220596 55.39501953 124.95166016 C51.9085077 127.93118487 48.14857542 130.07603033 44.00650024 132.01651001 C41.40823019 133.29005712 39.37092659 134.95434968 37.21875 136.875 C36.59339355 137.39835938 35.96803711 137.92171875 35.32373047 138.4609375 C34.72189941 138.96882812 34.12006836 139.47671875 33.5 140 C27.06377756 145.36883288 20.49627424 150.52862029 13.79492188 155.5625 C13.13814453 156.0575 12.48136719 156.5525 11.8046875 157.0625 C10.84900879 157.77986328 10.84900879 157.77986328 9.87402344 158.51171875 C7.94499231 160.04368511 6.18068976 161.69238391 4.3828125 163.375 C1.99987092 165.42489665 1.09160314 165.98091601 -2.09375 166.64453125 C-5.8702597 165.80699886 -7.63347585 164.27622897 -10.5 161.6875 C-11.55549853 160.75837567 -12.61286386 159.83136868 -13.671875 158.90625 C-14.49075195 158.18308594 -14.49075195 158.18308594 -15.32617188 157.4453125 C-18.05403133 155.08986793 -20.90081896 152.89326553 -23.75 150.6875 C-28.90839371 146.66879316 -33.99969403 142.57588319 -39.0625 138.4375 C-50.13983254 128.9611162 -50.13983254 128.9611162 -62.12174988 120.79402161 C-64.89660069 118.1436066 -64.59354857 116.05415489 -64.72387695 112.2722168 C-64.75176804 111.59200974 -64.77965912 110.91180267 -64.80839539 110.21098328 C-64.89238879 107.9570809 -64.94395256 105.70423437 -64.98828125 103.44921875 C-65.00583151 102.67509958 -65.02338177 101.90098042 -65.04146385 101.10340309 C-65.13080484 96.99600882 -65.19303556 92.88913743 -65.2355957 88.78100586 C-65.27535021 85.40171074 -65.3653082 82.02980997 -65.50219727 78.65307617 C-66.67145469 49.19020846 -66.67145469 49.19020846 -60.43017578 41.81958008 C-56.96246747 38.62802153 -53.19852235 36.2391388 -49.02548218 34.0718689 C-46.46329199 32.71597843 -44.30709042 31.0202406 -42.078125 29.17578125 C-40.80411492 28.21864401 -39.52816567 27.26408075 -38.25 26.3125 C-33.10070933 22.42925271 -28.07720899 18.45556437 -23.1875 14.25 C-19.02385658 10.68486413 -14.8296331 7.17529577 -10.5 3.8125 C-9.5615625 3.07644531 -8.623125 2.34039062 -7.65625 1.58203125 C-4.65269608 -0.20685013 -3.42415154 -0.36525148 0 0 Z M-10.8125 10.3125 C-12.17137808 11.42248363 -13.5307644 12.5318453 -14.890625 13.640625 C-15.92219727 14.48657227 -15.92219727 14.48657227 -16.97460938 15.34960938 C-19.97338282 17.7931615 -23.01507428 20.18010107 -26.0625 22.5625 C-27.21616905 23.46741832 -28.36981484 24.37236629 -29.5234375 25.27734375 C-31.27967305 26.65327646 -33.03645268 28.02850532 -34.79394531 29.40283203 C-42.60618094 35.51207626 -50.35518066 41.68132279 -58 48 C-54.34158315 51.80942092 -50.49476592 55.0942682 -46.3125 58.3125 C-45.06352985 59.28350411 -43.81483337 60.25486032 -42.56640625 61.2265625 C-41.95812988 61.69868164 -41.34985352 62.17080078 -40.72314453 62.65722656 C-38.38284107 64.48092577 -36.06464432 66.33138268 -33.75 68.1875 C-32.95335938 68.82558594 -32.15671875 69.46367188 -31.3359375 70.12109375 C-29.79637775 71.35943529 -28.25983722 72.60154123 -26.7265625 73.84765625 C-24.16657704 75.91860795 -21.5840051 77.95908566 -19 80 C-18.36658691 80.51272461 -17.73317383 81.02544922 -17.08056641 81.55371094 C-14.96335942 83.26229945 -12.82728809 84.94481257 -10.6875 86.625 C-10.0054248 87.1828418 -9.32334961 87.74068359 -8.62060547 88.31542969 C-6.7878418 89.73454721 -5.08158833 90.98034467 -3 92 C1.28523638 91.36257898 4.04477761 88.48520126 7.25 85.6875 C12.10002963 81.52529275 17.08591952 77.59893943 22.1875 73.75 C28.30553832 69.11501743 34.31972938 64.37320552 40.25 59.5 C40.95278076 58.92475586 41.65556152 58.34951172 42.37963867 57.75683594 C46.11709121 54.66596223 49.63598387 51.49440435 53 48 C44.49453943 41.03403872 35.95698386 34.13748025 27.21875 27.46484375 C23.750156 24.81534199 20.30904707 22.13157556 16.875 19.4375 C16.00307007 18.75506226 16.00307007 18.75506226 15.11352539 18.05883789 C12.29978342 15.84705057 9.51517886 13.60996659 6.77734375 11.3046875 C5.79894531 10.48226563 4.82054687 9.65984375 3.8125 8.8125 C2.95269531 8.07644531 2.09289062 7.34039062 1.20703125 6.58203125 C-3.81573746 2.98163952 -6.86571377 7.02559443 -10.8125 10.3125 Z M-60 55 C-60.27917889 62.79712019 -60.49180847 70.59305196 -60.62174606 78.39392757 C-60.68414708 82.01743593 -60.76860426 85.63750508 -60.90527344 89.2590332 C-61.0365778 92.76069335 -61.10758158 96.25906928 -61.13852692 99.7630024 C-61.17119737 101.7364123 -61.26474915 103.70851453 -61.35955811 105.67991638 C-61.36367902 111.22943977 -61.30694197 114.61222874 -57.39807129 118.7628479 C-54.44210416 121.12792297 -51.24305322 123.05192718 -48 125 C-46.56199363 126.10826583 -45.13934679 127.23756229 -43.75 128.40625 C-42.81776611 129.17316162 -42.81776611 129.17316162 -41.86669922 129.95556641 C-41.25068848 130.46522949 -40.63467773 130.97489258 -40 131.5 C-34.44237453 136.05701464 -28.8155715 140.45592459 -23.03125 144.72265625 C-20.73080558 146.45095405 -18.46809156 148.20329611 -16.21875 149.99609375 C-15.2599292 150.75962158 -15.2599292 150.75962158 -14.28173828 151.53857422 C-13.03201934 152.53738928 -11.78547065 153.54018685 -10.54248047 154.54736328 C-7.63242675 157.15137566 -7.63242675 157.15137566 -4 158 C-3.81412382 150.42875965 -3.67223576 142.85775752 -3.58550262 135.28475094 C-3.54385887 131.76754252 -3.48744452 128.25190179 -3.39648438 124.7355957 C-3.29241449 120.68686455 -3.25402331 116.63976298 -3.21875 112.58984375 C-3.17745972 111.33541977 -3.13616943 110.08099579 -3.09362793 108.78855896 C-2.98528244 102.33214687 -2.98528244 102.33214687 -5.71640015 96.69784546 C-7.72836986 94.91777358 -9.74310027 93.45054251 -12 92 C-13.12641624 91.11052237 -14.24549116 90.21152804 -15.3515625 89.296875 C-16.44096792 88.44568448 -17.53215488 87.59676976 -18.625 86.75 C-19.84896686 85.79428175 -21.07292494 84.83855227 -22.296875 83.8828125 C-23.53121828 82.92183425 -24.76559281 81.96089614 -26 81 C-28.29374682 79.21098022 -30.58516332 77.41902134 -32.875 75.625 C-33.43815918 75.18470459 -34.00131836 74.74440918 -34.58154297 74.29077148 C-37.8757883 71.70468252 -41.13357403 69.07956862 -44.3671875 66.41796875 C-45.09695801 65.81839355 -45.82672852 65.21881836 -46.57861328 64.60107422 C-48.00508206 63.42608993 -49.42805636 62.24684786 -50.84716797 61.06298828 C-51.49057129 60.53302246 -52.13397461 60.00305664 -52.796875 59.45703125 C-53.36760742 58.98241455 -53.93833984 58.50779785 -54.52636719 58.01879883 C-55.97559995 56.81044054 -55.97559995 56.81044054 -58 57 C-58 56.34 -58 55.68 -58 55 C-58.66 55 -59.32 55 -60 55 Z M47.1875 60.875 C42.7380009 64.71383216 38.24039921 68.44252557 33.5625 72 C33.02971436 72.40524902 32.49692871 72.81049805 31.94799805 73.22802734 C30.85615046 74.05830857 29.76427198 74.88854915 28.67236328 75.71875 C21.82542019 80.95223322 21.82542019 80.95223322 15.17260742 86.42431641 C13 88 13 88 9.6965332 89.49365234 C5.50074711 91.60372149 2.28555624 93.80068832 0 98 C-2.10168063 107.24588074 -1.28560355 117.08065848 -0.89263916 126.50036621 C-0.7586513 130.05262628 -0.70007294 133.60608765 -0.63476562 137.16015625 C-0.49613165 144.10973007 -0.27485658 151.05451378 0 158 C3.64404637 156.25354012 6.61490099 154.11068074 9.8125 151.625 C10.3787207 151.18583252 10.94494141 150.74666504 11.52832031 150.29418945 C16.43076011 146.47813138 21.27136364 142.58565408 26.11035156 138.68969727 C31.73037869 134.18025331 37.44521432 129.80036527 43.19042969 125.4519043 C44.19638184 124.68873901 44.19638184 124.68873901 45.22265625 123.91015625 C45.80797119 123.46808838 46.39328613 123.02602051 46.99633789 122.57055664 C47.65754639 122.05227295 48.31875488 121.53398926 49 121 C50.05582275 120.39575195 51.11164551 119.79150391 52.19946289 119.16894531 C54.47046374 117.2456145 54.9619237 116.20183304 55.52156067 113.2353363 C55.69657812 109.60454832 55.67340498 106.02074351 55.5859375 102.38671875 C55.5747375 101.0486695 55.5662011 99.71059553 55.56021118 98.37251282 C55.53737444 94.86196156 55.47850126 91.35291568 55.4119873 87.84295654 C55.35045009 84.25683963 55.32317212 80.67047784 55.29296875 77.08398438 C55.22874887 70.05537377 55.12643516 63.02775928 55 56 C51.65691414 56 49.59823597 58.75678305 47.1875 60.875 Z " fill="#252525" transform="translate(95,10)"/>
<path d="M0 0 C0.99 0 1.98 0 3 0 C3 18.15 3 36.3 3 55 C4.32 55.66 5.64 56.32 7 57 C9.07427854 58.51214343 11.1058773 60.04290268 13.125 61.625 C13.69178467 62.06505371 14.25856934 62.50510742 14.8425293 62.95849609 C19.93483043 66.92227182 24.98092847 70.94395574 30 75 C29.34 76.32 28.68 77.64 28 79 C22.7919226 77.42640936 19.15886756 74.11445187 15.0625 70.6875 C14.37220703 70.11837891 13.68191406 69.54925781 12.97070312 68.96289062 C11.61413245 67.84291616 10.26068576 66.71914523 8.91064453 65.59130859 C7.67874254 64.56530077 6.44054805 63.54677885 5.19482422 62.53759766 C1.10651088 59.21302175 1.10651088 59.21302175 0 57 C-0.0909215 55.1820546 -0.11753467 53.36074055 -0.11352539 51.54052734 C-0.11344986 50.39949554 -0.11337433 49.25846375 -0.11329651 48.08285522 C-0.10813522 46.84637238 -0.10297394 45.60988953 -0.09765625 44.3359375 C-0.0962413 43.07359283 -0.09482635 41.81124817 -0.09336853 40.51065063 C-0.08871078 37.15361701 -0.07972408 33.796651 -0.06866455 30.43963623 C-0.0584377 27.01445094 -0.05386818 23.58925866 -0.04882812 20.1640625 C-0.03778238 13.44268957 -0.02103194 6.72134869 0 0 Z " fill="#141414" transform="translate(32,71)"/>
<path d="M0 0 C0.66 0.33 1.32 0.66 2 1 C1.401875 1.721875 0.80375 2.44375 0.1875 3.1875 C-1.99051281 5.80334592 -1.99051281 5.80334592 -3.14453125 8.2578125 C-5.78753927 12.16390015 -9.20984127 14.76156335 -12.875 17.6875 C-14.00977783 18.60680298 -14.00977783 18.60680298 -15.16748047 19.54467773 C-23.92218779 26.60840734 -32.7718228 33.56173684 -42 40 C-42.33 38.35 -42.66 36.7 -43 35 C-35.31743014 28.33286546 -27.45608812 21.99767395 -19.33837891 15.86767578 C-12.68315437 10.81684925 -6.30853383 5.47471023 0 0 Z " fill="#2F2F2F" transform="translate(78,19)"/>
<path d="M0 0 C0.66 0.33 1.32 0.66 2 1 C1.401875 1.721875 0.80375 2.44375 0.1875 3.1875 C-1.99356257 5.8414246 -1.99356257 5.8414246 -3.328125 8.40234375 C-5.21716561 11.33741853 -7.2286756 13.18349996 -9.9375 15.375 C-10.79214844 16.08398438 -11.64679688 16.79296875 -12.52734375 17.5234375 C-15 19 -15 19 -17.17578125 18.66796875 C-17.77777344 18.44753906 -18.37976562 18.22710937 -19 18 C-21.21771064 18.85790183 -21.21771064 18.85790183 -23 20 C-19.52083373 16.42507686 -15.91881985 13.17637671 -12.0625 10 C-11.06347656 9.175 -10.06445312 8.35 -9.03515625 7.5 C-8.03355469 6.675 -7.03195313 5.85 -6 5 C-3.99788835 3.33584799 -1.99879136 1.66814182 0 0 Z " fill="#4A4A4A" transform="translate(78,19)"/>
<path d="M0 0 C-0.33 0.598125 -0.66 1.19625 -1 1.8125 C-2.20787988 4.05386471 -2.20787988 4.05386471 -2 7 C-3.28515625 8.3503418 -3.28515625 8.3503418 -5.0625 9.69921875 C-5.69414063 10.18583984 -6.32578125 10.67246094 -6.9765625 11.17382812 C-7.64429687 11.67333984 -8.31203125 12.17285156 -9 12.6875 C-9.66773437 13.19861328 -10.33546875 13.70972656 -11.0234375 14.23632812 C-12.67590522 15.4992856 -14.3371511 16.75074235 -16 18 C-16.33 17.01 -16.66 16.02 -17 15 C-13.98042504 9.62618016 -6.81257815 0 0 0 Z " fill="#404040" transform="translate(92,10)"/>
<path d="M0 0 C0.99 0.99 1.98 1.98 3 3 C-1.625 7.875 -1.625 7.875 -5 9 C-5.33 7.68 -5.66 6.36 -6 5 C-4.02 3.35 -2.04 1.7 0 0 Z " fill="#3E3E3E" transform="translate(113,156)"/>
<path d="M0 0 C0.66 0.33 1.32 0.66 2 1 C1.3503125 1.5878125 1.3503125 1.5878125 0.6875 2.1875 C-1.26366224 4.28319278 -2.59010162 6.51589333 -4 9 C-4.33 8.01 -4.66 7.02 -5 6 C-3.59554165 3.7363436 -1.8032087 1.9791315 0 0 Z " fill="#111111" transform="translate(80,19)"/>
</svg>
